<svg width="200" height="200" viewBox="0 0 200 200" fill="none" xmlns="http://www.w3.org/2000/svg">
<rect width="200" height="200" rx="32" fill="#09090B"/>
<g clip-path="url(#clip0_3101_710)">
<path d="M82.8292 95.5628C84.9176 91.2232 87.0125 86.8857 89.0922 82.5418C91.2284 78.0762 93.2929 73.576 95.5029 69.1495C96.6361 66.8766 97.105 64.5537 96.9704 62.0398C96.5688 54.6045 90.4034 49.2468 83.0506 50.1759C76.8744 50.9574 72.5109 54.4917 69.6606 59.8755C67.8044 63.3793 66.2132 67.022 64.5199 70.6105C62.9525 73.9342 61.2527 77.197 59.8525 80.5988C59.6831 80.9158 59.5008 81.2284 59.3467 81.5518C55.2871 90.04 51.2101 98.5195 47.1831 107.021C43.3146 115.183 39.5047 123.374 35.6535 131.545C34.6072 133.766 34.2555 136.082 34.4595 138.512C35.0435 145.415 40.944 150.489 47.8257 149.872C54.3362 149.288 58.8365 145.621 61.574 139.945C65.842 131.094 70.0253 122.197 74.2889 113.345C77.1415 107.42 79.9832 101.491 82.8292 95.5649V95.5628Z" fill="#FB923C"/>
<path d="M164.67 130.212C162.112 125.002 159.642 119.747 157.134 114.512C156.158 112.474 155.174 110.438 154.195 108.401C152.563 104.952 150.941 101.496 149.298 98.0506C144.634 88.2838 139.961 78.5234 135.291 68.7609C133.925 65.904 132.527 63.0602 131.203 60.1837C129.477 56.4368 126.851 53.5321 123.201 51.613C117.932 48.8408 111.906 49.7027 107.744 53.7492C103.815 57.5678 102.847 63.388 105.278 68.4461C111.682 81.7776 118.069 95.1156 124.478 108.443C126.56 112.771 128.685 117.078 130.791 121.396C130.815 121.501 130.819 121.616 130.864 121.711C133.871 128.078 136.8 134.485 139.919 140.795C141.864 144.731 145.001 147.538 149.165 149.054C156.171 151.604 163.467 148.296 165.677 141.57C166.962 137.659 166.478 133.892 164.672 130.212H164.67Z" fill="#FB923C"/>
<path d="M100.88 79.268C100.767 79.0379 100.75 78.6797 100.286 78.6862C98.3469 82.6546 96.3779 86.6339 94.4545 90.6327C92.3119 95.0895 90.2104 99.5659 88.0895 104.034C88.0157 104.157 87.9288 104.275 87.868 104.405C83.574 113.47 79.2691 122.53 74.9946 131.606C74.0438 133.627 73.6096 135.779 73.6639 138.028C73.8397 145.359 80.157 150.842 87.3948 149.894C93.0044 149.16 96.9359 145.958 99.8448 141.295C100.648 140.007 101.173 138.583 101.816 137.218C103.338 133.981 104.834 130.733 106.338 127.49C109.39 121.459 111.943 115.194 114.926 109.131C115.152 108.671 115.013 108.319 114.817 107.915C110.17 98.3676 105.53 88.8156 100.883 79.2702L100.88 79.268Z" fill="#FB923C"/>
</g>
<defs>
<clipPath id="clip0_3101_710">
<rect width="131.997" height="100" fill="white" transform="translate(34.401 50)"/>
</clipPath>
</defs>
</svg>
